<svg width="27" height="29" viewBox="0 0 27 29" fill="none" xmlns="http://www.w3.org/2000/svg">
<path d="M19.733 16.011C20.733 16.011 21.613 15.4461 22.0663 14.5919L26.8397 5.65014C27.333 4.7408 26.693 3.61102 25.6797 3.61102H5.94634L4.69301 0.855469H0.333008V3.61102H2.99967L7.79967 14.0684L5.99967 17.4301C5.02634 19.2764 6.30634 21.5221 8.33301 21.5221H24.333V18.7666H8.33301L9.79967 16.011H19.733ZM7.21301 6.36658H23.413L19.733 13.2555H10.373L7.21301 6.36658ZM8.33301 22.8999C6.86634 22.8999 5.67967 24.1399 5.67967 25.6555C5.67967 27.171 6.86634 28.411 8.33301 28.411C9.79967 28.411 10.9997 27.171 10.9997 25.6555C10.9997 24.1399 9.79967 22.8999 8.33301 22.8999ZM21.6663 22.8999C20.1997 22.8999 19.013 24.1399 19.013 25.6555C19.013 27.171 20.1997 28.411 21.6663 28.411C23.133 28.411 24.333 27.171 24.333 25.6555C24.333 24.1399 23.133 22.8999 21.6663 22.8999Z" fill="#FDFDFC"/>
</svg>
